<svg width="40" height="40" viewBox="0 0 40 40" fill="none" xmlns="http://www.w3.org/2000/svg">
<path d="M9.16699 1.66699C7.78628 1.66699 6.66699 2.78628 6.66699 4.16699V35.8337C6.66699 37.2144 7.78628 38.3337 9.16699 38.3337H30.8337C32.2144 38.3337 33.3337 37.2144 33.3337 35.8337V11.667L23.3337 1.66699H9.16699Z" fill="#E73A2F"/>
<path d="M13.332 26.667H26.6654V28.3337H13.332V26.667Z" fill="white"/>
<path d="M23.332 30.0003H13.332V31.667H23.332V30.0003Z" fill="white"/>
<path d="M9.16699 38.3337C7.78628 38.3337 6.66699 37.2144 6.66699 35.8337V35.417C6.66699 36.7977 7.78628 37.917 9.16699 37.917H30.8337C32.2144 37.917 33.3337 36.7977 33.3337 35.417V35.8337C33.3337 37.2144 32.2144 38.3337 30.8337 38.3337H9.16699Z" fill="#C61307"/>
<path d="M9.16699 1.66699C7.78628 1.66699 6.66699 2.78628 6.66699 4.16699V4.58366C6.66699 3.20295 7.78628 2.08366 9.16699 2.08366H23.7503L23.3337 1.66699H9.16699Z" fill="#FF5C51"/>
<path d="M33.3332 20.208V11.6663L31.8749 10.208H24.8421C24.2853 10.208 24.0064 10.8812 24.4001 11.2749L33.3332 20.208Z" fill="url(#paint0_linear)"/>
<path d="M23.333 1.66699L33.333 11.667H25.833C24.4523 11.667 23.333 10.5477 23.333 9.16699V1.66699Z" fill="#FA867E"/>
<path d="M13.3281 24.33V19H15.4591C15.8453 19 16.1787 19.0781 16.4591 19.2342C16.7412 19.3886 16.9587 19.6047 17.1115 19.8823C17.2643 20.1581 17.3407 20.4791 17.3407 20.8452C17.3407 21.213 17.2626 21.5349 17.1065 21.8107C16.9503 22.0849 16.7286 22.2974 16.4415 22.4484C16.156 22.5993 15.816 22.6748 15.4213 22.6748H14.575V24.33H13.3281ZM14.575 21.6598H15.1896C15.47 21.6598 15.6833 21.5861 15.8294 21.4386C15.9755 21.2894 16.0485 21.0916 16.0485 20.8452C16.0485 20.5971 15.9755 20.401 15.8294 20.257C15.6833 20.1113 15.47 20.0384 15.1896 20.0384H14.575V21.6598Z" fill="white"/>
<path d="M19.8621 24.33H17.9553V19H19.8596C20.3852 19 20.8378 19.1067 21.2173 19.3201C21.5985 19.5318 21.8924 19.8363 22.0989 20.2336C22.3055 20.6309 22.4087 21.1072 22.4087 21.6624C22.4087 22.2176 22.3055 22.6947 22.0989 23.0938C21.8941 23.4911 21.601 23.7965 21.2198 24.0099C20.8386 24.2233 20.3861 24.33 19.8621 24.33ZM19.2022 23.2317H19.8143C20.2492 23.2317 20.5817 23.1146 20.8118 22.8804C21.0435 22.6444 21.1594 22.2384 21.1594 21.6624C21.1594 21.0881 21.0427 20.6838 20.8092 20.4496C20.5775 20.2154 20.24 20.0983 19.7967 20.0983H19.2022V23.2317Z" fill="white"/>
<path d="M23.1367 24.33V19H26.6581V20.0462H24.3836V21.1393H26.4339V22.1881H24.3836V24.33H23.1367Z" fill="white"/>
<defs>
<linearGradient id="paint0_linear" x1="28.7745" y1="20.208" x2="28.7745" y2="9.99967" gradientUnits="userSpaceOnUse">
<stop stop-color="#E73A2F"/>
<stop offset="1" stop-color="#BC1B10"/>
</linearGradient>
</defs>
</svg>
