<svg width="40" height="40" viewBox="0 0 40 40" fill="none" xmlns="http://www.w3.org/2000/svg">
<path d="M9.16699 1.66699C7.78628 1.66699 6.66699 2.78628 6.66699 4.16699V35.8337C6.66699 37.2144 7.78628 38.3337 9.16699 38.3337H30.8337C32.2144 38.3337 33.3337 37.2144 33.3337 35.8337V11.667L23.3337 1.66699H9.16699Z" fill="#F4B70A"/>
<path d="M9.16699 38.3337C7.78628 38.3337 6.66699 37.2144 6.66699 35.8337V35.417C6.66699 36.7977 7.78628 37.917 9.16699 37.917H30.8337C32.2144 37.917 33.3337 36.7977 33.3337 35.417V35.8337C33.3337 37.2144 32.2144 38.3337 30.8337 38.3337H9.16699Z" fill="#EFA904"/>
<path d="M9.16699 1.66699C7.78628 1.66699 6.66699 2.78628 6.66699 4.16699V4.58366C6.66699 3.20295 7.78628 2.08366 9.16699 2.08366H23.7503L23.3337 1.66699H9.16699Z" fill="#F6C028"/>
<path d="M33.3332 20.208V11.6663L31.8749 10.208H24.8421C24.2853 10.208 24.0064 10.8812 24.4001 11.2749L33.3332 20.208Z" fill="url(#paint0_linear)"/>
<path d="M23.333 1.66699L33.333 11.667H25.833C24.4523 11.667 23.333 10.5477 23.333 9.16699V1.66699Z" fill="#FADC87"/>
<path fill-rule="evenodd" clip-rule="evenodd" d="M14.1663 18.333C13.7061 18.333 13.333 18.7061 13.333 19.1663V30.833C13.333 31.2932 13.7061 31.6663 14.1663 31.6663H25.833C26.2932 31.6663 26.6663 31.2932 26.6663 30.833V19.1663C26.6663 18.7061 26.2932 18.333 25.833 18.333H14.1663ZM24.9997 22.083H14.9997V27.9163H24.9997V22.083Z" fill="white"/>
<defs>
<linearGradient id="paint0_linear" x1="28.7745" y1="20.208" x2="28.7745" y2="9.99967" gradientUnits="userSpaceOnUse">
<stop stop-color="#F4B70A"/>
<stop offset="1" stop-color="#E2930A"/>
</linearGradient>
</defs>
</svg>
