<svg xmlns="http://www.w3.org/2000/svg" xmlns:xlink="http://www.w3.org/1999/xlink">
    <symbol id="arrow-right" viewBox="0 0 32 32">
        <path d="M3.5 16L28.5 16M28.5 16L19.5 24.5M28.5 16L19.5 7.5" stroke-width="3" stroke-linecap="round"
              stroke-linejoin="round"/>
    </symbol>
    <symbol id="arrow-bottom" viewBox="0 0 24 24">
        <path fill="transparent" d="M6 9L12 15L18 9" stroke-width="2" stroke-linecap="round" stroke-linejoin="round"/>
    </symbol>
    <symbol id="tick" viewBox="0 0 21 14">
        <path d="M18.399 0.413774C18.9758 -0.140876 19.9152 -0.136871 20.4939 0.419531L20.5188 0.443485C21.0989 1.00131 21.0988 1.90584 20.5196 2.4628L8.95306 13.5845C8.37336 14.1419 7.42849 14.1371 6.84776 13.5787L1.36695 8.30866C0.783928 7.74807 0.78308 6.83998 1.36174 6.28357L1.38665 6.25962C1.96679 5.70179 2.90315 5.69771 3.49105 6.26301L7.90342 10.5057L18.399 0.413774Z"/>
    </symbol>
    <symbol id="mail" viewBox="0 0 24 24">
        <path d="M22 16C22 17.8856 22 18.8284 21.4142 19.4142C20.8284 20 19.8856 20 18 20L6 20C4.11438 20 3.17157 20 2.58578 19.4142C2 18.8284 2 17.8856 2 16L2 8C2 6.11438 2 5.17157 2.58579 4.58579C3.17157 4 4.11438 4 6 4L18 4C19.8856 4 20.8284 4 21.4142 4.58579C22 5.17157 22 6.11438 22 8L22 16Z"
              stroke-width="2"/>
        <path d="M3 5L10.3029 12.3029C11.2402 13.2402 12.7598 13.2402 13.6971 12.3029L21 5" stroke-width="2"
              stroke-linecap="round" stroke-linejoin="round"/>

    </symbol>
    <symbol id="person" viewBox="0 0 24 24">
        <path d="M12.0002 15C16.9615 15 18.969 17.4922 19.6713 18.7672C19.9291 19.2352 20 19.7713 20 20.3056C20 20.6891 19.6891 21 19.3056 21H4.69431C4.31092 21 4.0001 20.6892 4.00007 20.3058C4.00002 19.7714 4.07094 19.2351 4.32884 18.767C5.03143 17.4919 7.03913 15 12.0002 15Z"
              stroke-width="2" stroke-linecap="round" stroke-linejoin="round"/>
        <path d="M16 7C16 9.20914 14.2091 11 12 11C9.79086 11 8 9.20914 8 7C8 4.79086 9.79086 3 12 3C14.2091 3 16 4.79086 16 7Z"
              stroke-width="2"/>
    </symbol>
    <symbol id="facebook" viewBox="0 0 24 24">
        <path d="M13.397 20.9972V12.8011H16.162L16.573 9.59215H13.397V7.54815C13.397 6.62215 13.655 5.98815 14.984 5.98815H16.668V3.12715C15.849 3.03915 15.025 2.99715 14.201 3.00015C11.757 3.00015 10.079 4.49215 10.079 7.23115V9.58615H7.33203V12.7951H10.085V20.9972H13.397Z"/>
    </symbol>
    <symbol id="telegram" viewBox="0 0 24 24">
        <path d="M3.10896 11.5135C3.10896 11.5135 11.109 8.23033 13.8835 7.07424C14.9471 6.61183 18.554 5.13203 18.554 5.13203C18.554 5.13203 20.2188 4.48467 20.08 6.05689C20.0338 6.70432 19.6638 8.97017 19.2939 11.4211C18.739 14.8893 18.1378 18.6812 18.1378 18.6812C18.1378 18.6812 18.0453 19.7448 17.2592 19.9297C16.4731 20.1147 15.1783 19.2824 14.9471 19.0973C14.7621 18.9587 11.4789 16.8777 10.2766 15.8604C9.95286 15.5829 9.58294 15.028 10.3228 14.3806C11.9876 12.8546 13.976 10.9587 15.1783 9.75635C15.7332 9.2014 16.2881 7.90662 13.976 9.47884C10.6928 11.7448 7.45578 13.8719 7.45578 13.8719C7.45578 13.8719 6.71587 14.3343 5.32861 13.9181C3.94128 13.502 2.32278 12.9471 2.32278 12.9471C2.32278 12.9471 1.21302 12.2534 3.10896 11.5135Z"/>
    </symbol>
    <symbol id="linkedin" viewBox="0 0 24 24">
        <path d="M4.98292 7.19827C6.19132 7.19827 7.17092 6.21866 7.17092 5.01027C7.17092 3.80187 6.19132 2.82227 4.98292 2.82227C3.77452 2.82227 2.79492 3.80187 2.79492 5.01027C2.79492 6.21866 3.77452 7.19827 4.98292 7.19827Z"/>
        <path d="M9.2377 8.85273V20.9917H13.0067V14.9887C13.0067 13.4047 13.3047 11.8707 15.2687 11.8707C17.2057 11.8707 17.2297 13.6817 17.2297 15.0887V20.9927H21.0007V14.3357C21.0007 11.0657 20.2967 8.55273 16.4747 8.55273C14.6397 8.55273 13.4097 9.55973 12.9067 10.5127H12.8557V8.85273H9.2377ZM3.0957 8.85273H6.8707V20.9917H3.0957V8.85273Z"/>
    </symbol>
    <symbol id="instagram" viewBox="0 0 24 24">
        <path d="M11.999 7.375C9.44498 7.375 7.37598 9.445 7.37598 11.998C7.37598 14.552 9.44498 16.622 11.999 16.622C14.551 16.622 16.622 14.552 16.622 11.998C16.622 9.445 14.551 7.375 11.999 7.375ZM11.999 15.002C10.34 15.002 8.99498 13.657 8.99498 11.999C8.99498 10.34 10.34 8.996 11.999 8.996C13.658 8.996 15.001 10.34 15.001 11.999C15.001 13.657 13.658 15.002 11.999 15.002Z"/>
        <path d="M16.8055 8.28686C17.4009 8.28686 17.8835 7.80422 17.8835 7.20886C17.8835 6.6135 17.4009 6.13086 16.8055 6.13086C16.2102 6.13086 15.7275 6.6135 15.7275 7.20886C15.7275 7.80422 16.2102 8.28686 16.8055 8.28686Z"/>
        <path d="M20.533 6.11186C20.064 4.90286 19.109 3.94686 17.9 3.47986C17.201 3.21686 16.462 3.07586 15.714 3.05986C14.751 3.01786 14.446 3.00586 12.004 3.00586C9.56195 3.00586 9.24895 3.00586 8.29395 3.05986C7.54795 3.07486 6.80895 3.21586 6.10995 3.47986C4.89995 3.94686 3.94495 4.90286 3.47695 6.11186C3.21395 6.81186 3.07295 7.54986 3.05795 8.29786C3.01495 9.25986 3.00195 9.56486 3.00195 12.0079C3.00195 14.4499 3.00195 14.7609 3.05795 15.7179C3.07295 16.4659 3.21395 17.2039 3.47695 17.9049C3.94595 19.1129 4.90095 20.0689 6.11095 20.5369C6.80695 20.8089 7.54595 20.9629 8.29595 20.9869C9.25895 21.0289 9.56395 21.0419 12.006 21.0419C14.448 21.0419 14.761 21.0419 15.716 20.9869C16.463 20.9719 17.202 20.8299 17.902 20.5679C19.111 20.0989 20.066 19.1439 20.535 17.9349C20.798 17.2349 20.939 16.4969 20.954 15.7489C20.997 14.7869 21.01 14.4819 21.01 12.0389C21.01 9.59586 21.01 9.28586 20.954 8.32886C20.941 7.57086 20.801 6.81986 20.533 6.11186ZM19.315 15.6439C19.308 16.2199 19.204 16.7909 19.004 17.3319C18.699 18.1189 18.078 18.7409 17.292 19.0429C16.757 19.2419 16.193 19.3459 15.622 19.3539C14.672 19.3979 14.404 19.4089 11.968 19.4089C9.52995 19.4089 9.28095 19.4089 8.31295 19.3539C7.74395 19.3469 7.17795 19.2419 6.64395 19.0429C5.85495 18.7419 5.22995 18.1199 4.92495 17.3319C4.72895 16.7979 4.62295 16.2329 4.61395 15.6629C4.57095 14.7129 4.56095 14.4449 4.56095 12.0089C4.56095 9.57186 4.56095 9.32286 4.61395 8.35386C4.62095 7.77786 4.72495 7.20786 4.92495 6.66686C5.22995 5.87786 5.85495 5.25686 6.64395 4.95486C7.17795 4.75686 7.74395 4.65186 8.31295 4.64386C9.26395 4.60086 9.53095 4.58886 11.968 4.58886C14.405 4.58886 14.655 4.58886 15.622 4.64386C16.193 4.65086 16.757 4.75586 17.292 4.95486C18.078 5.25786 18.699 5.87986 19.004 6.66686C19.2 7.20086 19.306 7.76586 19.315 8.33586C19.358 9.28686 19.369 9.55386 19.369 11.9909C19.369 14.4269 19.369 14.6889 19.326 15.6449H19.315V15.6439Z"/>
    </symbol>
    <symbol id="burger" viewBox="0 0 24 24">
        <path d="M2 4H22" stroke="white" stroke-width="2" stroke-linecap="round"/>
        <path d="M2 12H22" stroke="white" stroke-width="2" stroke-linecap="round"/>
        <path d="M2 20H22" stroke="white" stroke-width="2" stroke-linecap="round"/>
    </symbol>
    <symbol id="clip" viewBox="0 0 24 24">
        <path fill="transparent"
              d="M19 13L12.6422 19.4572C10.6555 21.5143 7.47673 21.5143 5.49003 19.4572C3.50332 17.4001 3.50332 14.1087 5.49003 12.0517L12.6422 4.23471C14.2315 2.58904 16.5885 2.6499 17.9663 4.0521C19.3441 5.45431 19.3969 7.52606 17.8077 9.17173L11 16C10 17 8.8 17.3 8 16.5C7.3 15.8 7.5 14.5 9 13L13 9"
              stroke-width="2" stroke-linecap="round"/>
    </symbol>
    <symbol id="place" viewBox="0 0 24 24">
        <path fill="transparent"
              d="M19 10.3636C19 16.0909 12 21 12 21C12 21 5 16.0909 5 10.3636C5 6.29681 8.13401 3 12 3C15.866 3 19 6.29681 19 10.3636Z"
              stroke-width="2" stroke-linejoin="round"/>
        <circle fill="transparent" cx="12" cy="10" r="3" stroke-width="2"/>
    </symbol>
    <symbol id="share" viewBox="0 0 24 24">
        <path fill-rule="evenodd" clip-rule="evenodd"
              d="M13.9775 8.5V4.35058C13.9775 4.03887 14.3537 3.88276 14.5737 4.10318L21.7081 11.2506C22.1151 11.6583 22.0943 12.3255 21.6627 12.707L14.5575 18.9875C14.332 19.1868 13.9772 19.0264 13.9772 18.7251L13.9775 14.5H11.9814C5.4951 14.5 3.00038 21 3.00038 21V19.0007C3.00038 13.4797 7.46928 8.5 12.9805 8.5C13.3406 8.5 13.6757 8.5 13.9775 8.5Z"
              fill="transparent" stroke-width="2" stroke-linejoin="round"/>
    </symbol>
    <symbol id="tick-round" viewBox="0 0 24 24">
        <path fill-rule="evenodd" clip-rule="evenodd"
              d="M12 2C6.47715 2 2 6.47715 2 12C2 17.5228 6.47715 22 12 22C17.5228 22 22 17.5228 22 12C22 6.47715 17.5228 2 12 2ZM17.2557 9.15493C17.6174 8.73758 17.5723 8.10602 17.1549 7.74431C16.7376 7.3826 16.106 7.42771 15.7443 7.84507L10.0042 14.4683L7.75926 11.8492C7.39983 11.4299 6.76853 11.3813 6.34921 11.7407C5.92988 12.1002 5.88132 12.7315 6.24074 13.1508L9.24074 16.6508C9.4301 16.8717 9.7063 16.9992 9.99727 17C10.2882 17.0008 10.5651 16.8748 10.7557 16.6549L17.2557 9.15493Z"
        />
    </symbol>
    <symbol id="close" viewBox="0 0 24 24">
        <path d="M4 4L20 20" stroke="white" stroke-width="2" stroke-linecap="round"/>
        <path d="M4 20L20 4" stroke="white" stroke-width="2" stroke-linecap="round"/>
    </symbol>
    <symbol id="download" viewBox="0 0 24 24">
        <path fill-rule="evenodd" clip-rule="evenodd"
              d="M7.99988 4.5C7.99988 3.11929 9.11917 2 10.4999 2H13.4999C14.8806 2 15.9999 3.11929 15.9999 4.5V12H18.1483C19.7258 12 20.5402 13.8849 19.4591 15.0337L13.4563 21.4117C12.6666 22.2507 11.3332 22.2507 10.5435 21.4117L4.54066 15.0337C3.45952 13.8849 4.27395 12 5.85142 12H7.99988V4.5ZM10.4999 4C10.2237 4 9.99988 4.22386 9.99988 4.5V13C9.99988 13.5523 9.55217 14 8.99988 14H6.31431L11.9999 20.0409L17.6855 14H14.9999C14.4476 14 13.9999 13.5523 13.9999 13V4.5C13.9999 4.22386 13.776 4 13.4999 4H10.4999Z"/>
    </symbol>
</svg>